<svg xmlns="http://www.w3.org/2000/svg" viewBox="0 0 1024 1024" width="1024" height="1024"><defs></defs><g>
<rect fill="#ffffff" fill-opacity="0.381" x="0" y="0" width="1024" height="1024"/>
<g>
	<g>
		<path d="M706.66949231,346.05157482 C706.66949231,346.05157482 873.94267733,150.05732267 873.94267733,150.05732267 C873.94267733,150.05732267 767.86426108,150.05732267 767.86426108,150.05732267 C767.86426108,150.05732267 645.32365472,293.63834253 645.32365472,293.63834253 C668.44455564,307.79775793 689.14966036,325.52532756 706.66949231,346.05157482 ZM645.32365472,293.63834253 C606.48376029,269.85249606 560.82665278,256.13573892 512,256.13573892 C370.81799556,256.13573892 256.13573892,370.81799556 256.13573892,512 C256.13573892,575.28945904 279.18199112,633.25359671 317.33050769,677.94842518 C317.33050769,677.94842518 645.32365472,293.63834253 645.32365472,293.63834253 ZM378.67634528,730.3616574700001 C378.67634528,730.3616574700001 706.66949231,346.05157482 706.66949231,346.05157482 C744.81800888,390.74640329 767.86426108,448.71054096 767.86426108,512 C767.86426108,653.18200444 653.18200444,767.86426108 512,767.86426108 C463.17334722,767.86426108 417.51623971000004,754.14750394 378.67634528,730.3616574700001 ZM317.33050769,677.94842518 C317.33050769,677.94842518 150.05732267,873.94267733 150.05732267,873.94267733 C150.05732267,873.94267733 256.13573892,873.94267733 256.13573892,873.94267733 C256.13573892,873.94267733 378.67634528,730.3616574700001 378.67634528,730.3616574700001 C355.55544436,716.20224207 334.85033964,698.4746724400001 317.33050769,677.94842518 Z" fill="#000000"/>
	</g>
</g></g></svg>